<svg width="78" height="83" viewBox="0 0 78 83" fill="none" xmlns="http://www.w3.org/2000/svg">
<path d="M41.1775 0.471249C40.495 0.1625 39.7637 0 39 0C38.2363 0 37.505 0.1625 36.8225 0.471249L6.22381 13.455C2.64882 14.9662 -0.0161761 18.4925 7.39129e-05 22.75C0.0813238 38.8699 6.71131 68.3636 34.71 81.7698C37.4238 83.0698 40.5762 83.0698 43.29 81.7698C71.2887 68.3636 77.9187 38.8699 77.9999 22.75C78.0162 18.4925 75.3512 14.9662 71.7762 13.455L41.1775 0.471249ZM23.5463 46.5074C24.3263 46.7024 25.155 46.7999 26 46.7999C31.7363 46.7999 36.4 42.1362 36.4 36.3999V25.9999H43.5825C45.5487 25.9999 47.3525 27.1049 48.23 28.8762L49.4 31.1999H59.8C61.23 31.1999 62.4 32.3699 62.4 33.7999V38.9999C62.4 46.1824 56.5825 51.9999 49.4 51.9999H41.6V60.2386C41.6 61.4249 40.6413 62.3999 39.4388 62.3999C39.1463 62.3999 38.8538 62.3349 38.5938 62.2211L22.555 55.3474C21.4825 54.8924 20.8 53.8361 20.8 52.6824C20.8 52.2274 20.8975 51.7887 21.1088 51.3824L23.5463 46.5074ZM23.4 25.9999H29.9H31.2V31.1999V36.3999C31.2 39.2762 28.8763 41.5999 26 41.5999C23.1238 41.5999 20.8 39.2762 20.8 36.3999V28.5999C20.8 27.1699 21.97 25.9999 23.4 25.9999ZM44.2 33.7999C44.2 33.1104 43.9261 32.4491 43.4385 31.9615C42.9509 31.4739 42.2896 31.1999 41.6 31.1999C40.9104 31.1999 40.2491 31.4739 39.7615 31.9615C39.2739 32.4491 39 33.1104 39 33.7999C39 34.4895 39.2739 35.1508 39.7615 35.6384C40.2491 36.126 40.9104 36.3999 41.6 36.3999C42.2896 36.3999 42.9509 36.126 43.4385 35.6384C43.9261 35.1508 44.2 34.4895 44.2 33.7999Z" fill="white"/>
</svg>
