<svg width="16" height="24" viewBox="0 0 16 24" fill="black" xmlns="http://www.w3.org/2000/svg">
<path d="M37.7715 10.0433C40.1316 17.1234 37.722 24.2696 32.3912 26.019C27.0605 27.7685 20.822 23.4444 18.4619 16.3643C16.1019 9.28408 18.5114 2.13789 23.8422 0.388476C29.173 -1.36094 35.4114 2.96308 37.7715 10.0433ZM16.9601 27.4879C20.0793 32.8352 19.3201 39.0571 15.2767 41.3677C11.2332 43.6782 5.42384 41.2191 2.32111 35.8719C-0.781626 30.5246 -0.0554544 24.3026 3.988 21.9921C8.03146 19.6815 13.8408 22.1406 16.9436 27.4879H16.9601ZM11.8109 60.9248C20.4589 37.6048 35.824 31.6799 42.6401 31.6799C49.4563 31.6799 64.8214 37.6048 73.4694 60.9248C74.0636 62.5257 74.3276 64.2421 74.3276 65.9585V66.2226C74.3276 70.4806 70.8783 73.9299 66.6203 73.9299C64.7224 73.9299 62.8409 73.6988 61.009 73.2367L46.4856 69.6059C43.9605 68.9787 41.3198 68.9787 38.7947 69.6059L24.2713 73.2367C22.4394 73.6988 20.5579 73.9299 18.66 73.9299C14.402 73.9299 10.9527 70.4806 10.9527 66.2226V65.9585C10.9527 64.2421 11.2167 62.5257 11.8109 60.9248ZM70.0036 41.3677C65.9602 39.0571 65.201 32.8352 68.3202 27.4879C71.4395 22.1406 77.2323 19.6815 81.2758 21.9921C85.3192 24.3026 86.0784 30.5246 82.9592 35.8719C79.84 41.2191 74.0471 43.6782 70.0036 41.3677ZM51.5688 26.019C46.238 24.2696 43.8284 17.1234 46.1885 10.0433C48.5485 2.96308 54.787 -1.36094 60.1178 0.388476C65.4485 2.13789 67.8581 9.28408 65.4981 16.3643C63.138 23.4444 56.8995 27.7685 51.5688 26.019Z" fill="white"/>
</svg>
