<svg width="488" height="613" viewBox="0 0 488 613" fill="none" xmlns="http://www.w3.org/2000/svg">
<path d="M272.818 14.5194C250.579 29.2783 234.951 51.941 220.923 74.6485C206.894 97.3546 193.632 121.021 174.392 139.522C148.687 164.242 114.535 177.692 83.5246 195.308C52.5169 212.923 22.1928 238.027 14.5135 272.854C7.02407 306.814 22.8914 341.435 41.5438 370.787C60.1948 400.139 82.5418 428.457 90.2496 462.368C93.8126 478.043 94.0803 494.383 98.4391 509.854C107.819 543.157 135.27 568.75 165.667 585.28C223.945 616.974 296.946 620.057 357.689 593.392C418.434 566.726 465.574 510.902 481.691 446.55C497.807 382.2 482.542 310.746 441.537 258.597C425.213 237.837 404.661 219.255 396.141 194.258C389.021 173.363 391.266 150.555 394.279 128.688C397.291 106.821 400.977 84.4713 396.513 62.8527C384.568 4.97479 320.662 -17.2346 272.818 14.5194Z" fill="#C7F9CC" fill-opacity="0.8"/>
<path d="M413.346 181.1C416.33 191.079 422.805 201.656 433.137 202.97C440.838 203.95 448.413 199.137 452.658 192.636C456.902 186.138 458.373 178.23 459.103 170.501C460.348 157.349 459.491 143.296 452.274 132.229C445.399 121.686 425.071 110.576 416.517 124.6C407.21 139.857 408.474 164.807 413.346 181.1Z" fill="#C7F9CC" fill-opacity="0.8"/>
<path d="M139.953 141.015C128.371 148.405 115.661 154.552 102.029 156.26C88.3976 157.969 73.6895 154.753 63.6169 145.411C54.859 137.293 50.3597 125.248 49.8706 113.316C49.383 101.385 52.6154 89.5447 57.4453 78.6239C75.4725 37.8698 117.498 8.85599 161.995 6.44328C183.53 5.27657 216.803 17.2623 213.653 44.333C210.829 68.6052 190.697 94.765 174.636 112.035C164.348 123.097 152.688 132.888 139.953 141.015Z" fill="#C7F9CC" fill-opacity="0.8"/>
<path d="M2.02205 189.071C4.08324 194.303 7.54898 199.085 12.3011 202.09C21.8652 208.136 35.6458 205.414 42.9587 196.78C56.693 180.564 45.9129 155.398 26.7339 149.645C4.80571 143.067 -4.44274 172.661 2.02205 189.071Z" fill="#C7F9CC" fill-opacity="0.8"/>
<path d="M15.4651 241.183C18.3998 239.705 20.0153 236.39 20.473 233.137C21.8117 223.634 9.34735 212.06 2.15711 222.224C-3.16939 229.749 5.72605 246.087 15.4651 241.183Z" fill="#C7F9CC" fill-opacity="0.8"/>
<mask id="mask0_72_7309" style="mask-type:luminance" maskUnits="userSpaceOnUse" x="11" y="-1" width="478" height="614">
<path d="M264.779 19.7703C267.275 17.7751 269.86 15.8813 272.541 14.1021C287.485 4.18604 303.984 -0.500916 320.005 -0.49939C355.564 -0.496399 388.717 22.603 397.004 62.7525C401.172 82.9447 398.262 103.765 395.415 124.14C395.2 125.681 394.985 127.22 394.773 128.756C391.762 150.628 389.536 173.327 396.615 194.096C400.847 206.515 408.075 217.358 416.304 227.705C420.289 232.717 424.504 237.605 428.724 242.5L429.134 242.976C433.489 248.027 437.841 253.089 441.931 258.289C483.032 310.558 498.33 382.171 482.175 446.671C466.022 511.173 418.775 567.121 357.891 593.849C297.005 620.576 223.842 617.485 165.429 585.72C134.967 569.156 107.389 543.473 97.9572 509.99C95.7679 502.216 94.6076 494.231 93.5504 486.253C93.4357 485.387 93.3223 484.522 93.2089 483.657C92.2754 476.538 91.3451 469.442 89.763 462.48C85.9253 445.596 78.4395 430.089 69.5704 415.123C64.117 405.921 58.1582 396.95 52.2064 387.99C48.4662 382.359 44.7288 376.732 41.1213 371.055C22.4618 341.69 6.4889 306.916 14.0246 272.747C21.7537 237.702 52.2433 212.501 83.2785 194.872C91.1132 190.421 99.146 186.236 107.185 182.073C107.756 181.776 108.328 181.48 108.9 181.184C116.233 177.388 123.559 173.595 130.744 169.615C123.713 153.771 121.88 135.447 124.58 118.209C128.447 93.5225 140.664 70.8517 155.487 50.8232C169.363 32.074 186.769 14.4227 209.168 7.47028C228.224 1.55231 251.357 5.66272 264.779 19.7703Z" fill="white" stroke="white"/>
</mask>
<g mask="url(#mask0_72_7309)">
<g filter="url(#filter0_d_72_7309)">
<path d="M184.022 38.4746C184.955 27.4596 192.516 17.6218 202.276 12.4299C214.597 5.87688 230.946 6.6846 241.54 15.7685C249.694 22.7628 253.791 34.1891 251.933 44.7703C250.077 55.3515 242.338 64.7032 232.291 68.504C220.755 72.8657 210.621 68.3394 199.813 64.5117C189.39 60.8186 183.109 49.2607 184.022 38.4746Z" fill="#4E2447"/>
<path d="M241.541 15.7699C230.946 6.68595 214.597 5.87823 202.276 12.4313C195.203 16.1932 189.297 22.4037 186.222 29.727C190.564 24.429 196.13 20.1675 202.501 17.662C214.409 12.9772 228.856 14.8335 238.694 23.014C246.719 29.6882 251.145 40.4997 250.188 50.8057C250.976 48.8626 251.57 46.8418 251.933 44.7717C253.79 34.1905 249.694 22.7642 241.541 15.7699Z" fill="#703E59"/>
<path d="M314.776 196.152C307.574 190.658 301.616 183.026 297.093 174.49C294.293 169.237 292.046 163.698 290.142 158.108C290.024 157.341 289.901 156.572 289.786 155.807C285.879 129.7 282.512 102.049 266.492 81.069C250.876 60.6186 223.799 49.5738 198.335 53.2683C172.872 56.9629 150.049 75.2459 140.889 99.2907C131.729 123.334 136.601 152.17 153.15 171.869C155.946 175.196 158.028 178.911 159.518 182.881C159.59 184.299 159.619 185.741 159.593 187.207C159.491 193.453 158.414 200.053 156.236 206.286C154.052 212.516 150.779 218.348 146.964 223.296C143.155 228.26 138.815 232.321 134.718 235.46C139.253 233.004 144.12 229.316 148.368 224.451C152.627 219.607 156.245 213.603 158.526 207.088C160.5 201.441 161.447 195.468 161.465 189.784C165.101 208.163 158.221 230.241 148.216 246.264C204.544 240.638 262.625 233.394 318.952 227.77C307.248 216.818 300.461 202.253 296.047 186.661C297.181 188.172 298.36 189.647 299.636 191.029C303.181 194.946 307.325 198.279 311.675 200.805C316.034 203.336 320.635 205.092 325.134 205.979C329.625 206.911 334.006 206.892 337.865 206.271C330.106 205.104 321.936 201.71 314.776 196.152Z" fill="#4E2447"/>
<path d="M150.572 91.3802C163.806 72.7038 186.384 61.0232 209.271 61.0113C232.16 61.0008 254.751 72.6605 268.001 91.3234C279.693 107.793 283.754 127.891 288.584 147.729C285.051 124.095 280.867 99.8957 266.491 81.0683C250.877 60.6194 223.799 49.5745 198.336 53.2691C172.872 56.9622 150.049 75.2467 140.889 99.2899C136.134 111.775 135.191 125.545 137.673 138.664C136.466 122.05 140.93 104.99 150.572 91.3802Z" fill="#703E59"/>
<path d="M164.483 628.721L157.547 574.385C154.887 553.544 158.28 532.38 167.32 513.417L173.202 501.081L376.131 494.1L383.78 506.59C398.579 530.744 402.682 559.956 395.112 587.253L383.61 628.721H164.483Z" fill="#3E4E6C"/>
<path d="M330.591 541.632C350.307 533.801 368.943 523.561 387.391 513.056C386.26 510.869 385.077 508.702 383.781 506.589L376.13 494.1L173.201 501.081L167.322 513.417C165.974 516.239 164.77 519.119 163.673 522.031C192.923 538.915 226.401 553.565 259.972 555.149C284.095 556.289 308.145 550.545 330.591 541.632Z" fill="#47284F"/>
<path d="M215.832 568.515L254.441 580.887C263.447 583.772 273.164 583.526 282.011 580.187L331.755 561.41L284.412 588.291C280.227 590.666 277.44 594.91 276.926 599.693L273.794 628.721H265.567L264.436 601.295C264.212 595.84 261.03 590.939 256.137 588.512L215.832 568.515Z" fill="#47284F"/>
<path d="M387.009 501.782L366.023 463.73C356.577 446.605 350.821 427.695 349.121 408.211L332.456 217.255L303.716 216.869C297.134 239.291 276.78 257.482 253.465 260.502C229.236 263.64 203.925 250.122 192.392 228.723L173.203 231.34C178.851 251.975 178.076 275.586 172.386 296.21C169.312 307.346 164.644 317.979 161.293 329.036C157.94 340.09 155.92 351.892 158.324 363.191C159.646 369.406 162.517 375.443 166.653 380.238C174.962 389.874 180.553 401.544 181.923 414.194L183.881 432.274C186.036 452.171 182.71 472.279 174.263 490.421L163.73 513.046C192.223 529.768 225.145 544.554 258.148 546.112C281.161 547.198 304.106 541.719 325.52 533.216C346.932 524.711 367.012 513.226 387.009 501.782Z" fill="#FFA9AE"/>
<path d="M316.797 306.628C318.016 313.211 330.327 324.023 342.588 333.354L334.678 242.715C313.806 259.261 314.304 293.166 316.797 306.628Z" fill="#FF889B"/>
<path d="M347.471 504.736C337.746 508.791 326.599 512.95 314.485 516.206C302.384 519.483 289.345 521.869 276.181 522.988C263.013 524.066 249.759 523.875 237.283 522.647C224.796 521.444 213.115 519.19 202.851 516.803C211.829 522.274 223.24 527.11 236.061 530.055C248.862 533.034 263.018 534.118 277.014 532.963C291.007 531.782 304.788 528.367 316.918 523.308C329.072 518.279 339.526 511.62 347.471 504.736Z" fill="#FF889B"/>
<path d="M338.057 489.741C332.496 491.735 326.185 493.986 319.397 496.058C312.614 498.137 305.364 500.04 298.028 501.556C290.69 503.06 283.278 504.177 276.224 504.946C269.171 505.724 262.484 506.147 256.586 506.512C262.294 508.011 269.095 509.005 276.407 509.154C283.717 509.312 291.526 508.623 299.161 507.056C306.793 505.478 314.24 503.028 320.891 499.995C327.552 496.972 333.407 493.372 338.057 489.741Z" fill="#FF889B"/>
<path d="M302.678 247.693C296.761 252.689 289.556 257.632 281.272 261.409C273.015 265.203 263.717 267.826 254.263 268.611C244.806 269.377 235.206 268.305 226.439 265.907C217.652 263.53 209.737 259.828 203.086 255.863C208.147 261.708 215.561 267.359 224.633 271.129C233.666 274.928 244.313 276.819 254.865 275.954C265.417 275.087 275.613 271.488 283.906 266.266C292.244 261.068 298.637 254.283 302.678 247.693Z" fill="#FF889B"/>
<path d="M349.12 408.212L348.754 404.01C292.991 403.645 237.206 406.878 181.856 413.673C181.875 413.848 181.903 414.02 181.923 414.195L183.881 432.274C185.125 443.774 184.529 455.344 182.182 466.567L230.928 432.097C229.828 437.866 230.458 444.256 232.093 449.898C233.728 455.54 237.339 460.751 242.514 463.529C247.688 466.308 254.461 466.311 259.212 462.856C262.706 460.316 264.824 456.231 265.823 452.028C266.453 449.382 266.685 446.673 266.765 443.951C266.635 442.353 266.617 440.75 266.809 439.137C266.813 440.738 266.816 442.346 266.765 443.951C267.042 447.318 267.862 450.656 268.596 453.998C269.682 458.928 272.773 463.713 277.513 465.447C283.816 467.75 291.033 463.883 294.747 458.294C298.463 452.707 299.502 445.816 300.452 439.173L354.671 436.867C351.837 427.56 349.97 417.958 349.12 408.212Z" fill="#FF889B"/>
<path d="M176.941 320.588H127.58L114.584 409.751C114.388 411.095 114.274 412.439 114.208 413.78L165.723 399.117L176.941 320.588Z" fill="#D56C67"/>
<path d="M253.465 260.503C276.779 257.483 297.134 239.291 303.717 216.869L267.555 216.381L251.981 163.857L209.007 199.928L217.078 225.356L192.392 228.723C203.924 250.122 229.237 263.641 253.465 260.503Z" fill="#D56C67"/>
<path d="M209.007 199.928L213.221 213.204C238.642 225.233 257.154 199.43 251.98 163.856L209.007 199.928Z" fill="#4E2447"/>
<path d="M177.172 185.432C172.749 186.25 168.268 187.072 163.782 186.749C159.294 186.428 154.728 184.826 151.714 181.486C148.701 178.146 147.636 172.868 149.952 169.012C152.26 165.17 157.754 163.66 161.698 165.787C165.091 172.64 171.185 180.676 177.172 185.432Z" fill="#BE4E5A"/>
<path d="M256.339 155.667C254.728 169.417 252.681 184.153 243.304 194.339C234.193 204.236 219.407 207.706 206.213 205.078C193.021 202.448 181.381 194.402 172.288 184.49C155.586 166.283 146.65 141.176 148.092 116.512C168.057 101.575 193.952 94.0738 218.81 96.0079C218.171 104.217 221.815 113.262 226.237 120.208C230.657 127.155 237.377 132.608 245.085 135.506C244.306 138.693 245.314 141.807 246.868 144.699C248.424 147.589 251.076 149.87 254.167 150.977C253.955 146.328 254.96 142.156 257.306 138.137C259.652 134.118 263.696 130.963 268.309 130.341C272.92 129.72 277.959 131.97 280.031 136.137C282.387 140.875 280.605 146.658 277.85 151.175C275.578 154.901 272.501 158.354 268.428 159.924C264.357 161.495 259.003 159.124 256.339 155.667Z" fill="#D56C67"/>
<path d="M274.127 135.573C270.912 134.628 267.301 135.904 264.95 138.291C262.6 140.68 261.399 144.018 261.059 147.351C260.925 148.661 260.922 150.027 261.435 151.237C261.948 152.449 263.083 153.472 264.398 153.514C266.142 153.57 267.49 151.995 268.272 150.435C269.025 148.937 269.53 147.228 269.197 145.583C268.861 143.939 267.497 142.427 265.821 142.357C266.921 139.319 270.93 136.05 274.127 135.573Z" fill="#BE4E5A"/>
<path d="M219.244 121.331C216.486 116.412 210.59 113.453 204.998 114.183C199.404 114.913 194.465 119.285 193.06 124.748C200.907 123.825 211.397 122.253 219.244 121.331Z" fill="#4E2447"/>
<path d="M166.595 132.068C165.57 130.706 164.531 129.329 163.191 128.282C161.847 127.235 160.144 126.539 158.455 126.756C155.867 127.087 153.944 129.502 153.344 132.039C152.741 134.579 153.184 137.234 153.63 139.804C157.371 137.563 162.853 134.308 166.595 132.068Z" fill="#4E2447"/>
<path d="M214.149 141.936C214.149 144.775 211.847 147.078 209.007 147.078C206.168 147.078 203.866 144.775 203.866 141.936C203.866 139.097 206.168 136.793 209.007 136.793C211.847 136.793 214.149 139.097 214.149 141.936Z" fill="#4E2447"/>
<path d="M170.453 152.641C171.118 155.402 170.04 158.03 168.042 158.513C166.042 158.996 163.88 157.15 163.213 154.389C162.548 151.629 163.628 149 165.624 148.518C167.624 148.034 169.786 149.881 170.453 152.641Z" fill="#4E2447"/>
<path d="M205.222 166.616C197.802 170.052 190.037 172.74 182.081 174.624C186.177 176.496 190.834 177.342 195.105 175.921C199.378 174.499 203.066 170.568 205.222 166.616Z" fill="#BE4E5A"/>
<path d="M234.331 165.758C222.258 173.91 209.086 180.434 195.286 185.097C201.694 189.781 211.687 189.179 218.528 185.154C225.368 181.128 230.859 172.894 234.331 165.758Z" fill="white"/>
<path d="M230.617 183.79C225.686 189.555 218.597 193.429 211.079 194.464C214.807 196.183 219.613 196.38 223.275 194.533C226.936 192.684 229.786 187.808 230.617 183.79Z" fill="#BE4E5A"/>
<path d="M271.176 162.409C271.176 165.025 269.055 167.146 266.439 167.146C263.823 167.146 261.703 165.025 261.703 162.409C261.703 159.793 263.823 157.672 266.439 157.672C269.055 157.672 271.176 159.793 271.176 162.409Z" fill="#E5E5E1"/>
<path d="M267.344 161.847C267.344 162.956 266.444 163.857 265.334 163.857C264.224 163.857 263.324 162.956 263.324 161.847C263.324 160.737 264.224 159.836 265.334 159.836C266.444 159.836 267.344 160.737 267.344 161.847Z" fill="white"/>
<path d="M234.94 148.296C236.196 151.352 232.376 155.82 226.406 158.273C220.438 160.727 214.58 160.238 213.324 157.182C212.067 154.127 215.888 149.66 221.856 147.206C227.826 144.751 233.683 145.24 234.94 148.296Z" fill="#BE4E5A"/>
<path d="M174.948 167.622C175.597 170.863 173.687 173.976 170.682 174.577C167.677 175.178 164.715 173.039 164.067 169.799C163.418 166.56 165.328 163.445 168.333 162.844C171.338 162.243 174.3 164.382 174.948 167.622Z" fill="#BE4E5A"/>
<path d="M173.202 231.34C154.054 233.952 138.643 248.368 134.763 267.299L123.841 320.589H182.082C182.082 240.813 173.202 231.34 173.202 231.34Z" fill="#FFA9AE"/>
<path d="M392.584 301.143L406.329 375.494C410.63 398.76 393.121 420.36 369.472 420.969L221.067 424.795L299.346 377.926L345.828 370.482L340.476 309.144L392.584 301.143Z" fill="#D56C67"/>
<path d="M318.293 401.735C315.782 403.22 312.908 407.193 312.804 410.11C312.699 413.024 314.162 415.949 316.56 417.611C319.605 419.725 323.599 419.696 327.301 419.529C340.379 418.942 354.336 417.252 364.28 408.743C372.487 401.715 376.778 390.379 375.278 379.68C373.776 368.98 366.532 359.261 356.708 354.766L355.075 339.571C370.42 338.133 387.078 331.339 397.277 326.528L392.584 301.143L340.476 309.144L345.828 370.482L299.346 377.926L221.067 424.795L240.515 424.294L296.978 399.491C305.205 402.109 318.293 401.735 318.293 401.735Z" fill="#BE4E5A"/>
<path d="M241.475 441.145C241.231 442.299 241.007 443.465 240.818 444.662C240.287 448.013 240.151 451.562 241.476 454.685C243.249 458.859 247.62 461.704 252.149 461.947C256.675 462.19 261.192 459.964 264.018 456.419C267.074 452.585 267.95 447.989 268.35 443.181C259.849 439.868 250.376 439.155 241.475 441.145Z" fill="#D8B59D"/>
<path d="M249.009 424.075C244.986 429.255 242.794 434.897 241.475 441.145C250.377 439.154 259.849 439.868 268.35 443.181C268.902 436.534 268.534 429.484 271.699 423.489L249.009 424.075Z" fill="#A08094"/>
<path d="M275.554 441.781C275.349 442.74 275.171 443.7 275.02 444.662C274.489 448.012 274.351 451.562 275.678 454.685C277.45 458.858 281.821 461.703 286.349 461.947C290.877 462.191 295.392 459.964 298.219 456.419C301.628 452.145 302.426 446.725 302.873 441.109C293.967 438.638 284.326 438.876 275.554 441.781Z" fill="#D8B59D"/>
<path d="M283.887 423.176C279.717 428.544 276.984 435.09 275.554 441.78C284.327 438.875 293.966 438.639 302.872 441.109C303.382 434.726 303.439 428.092 306.341 422.597L283.887 423.176Z" fill="#A08094"/>
<path d="M332.457 217.255L343 217.397C360.9 217.637 376.687 229.178 382.35 246.16L404.301 311.988C380.742 326.198 335.668 326.86 335.668 326.86L325.277 290.462C320.236 272.804 320.562 254.045 326.21 236.572L332.457 217.255Z" fill="#FFA9AE"/>
<path d="M371.546 376.723C371.028 366.42 366.215 353.879 357.035 349.172L352.132 352.536C357.612 358.627 360.167 368.117 357.902 375.991C355.636 383.864 349.118 390.37 341.239 392.62C339.16 393.214 337.023 393.517 334.867 393.718C340.145 398.54 343.386 405.575 343.582 412.719C349.554 410.966 355.149 408.321 359.841 404.238C367.622 397.465 372.065 387.026 371.546 376.723Z" fill="#A08094"/>
<path d="M334.868 393.718C332.152 393.973 329.403 394.059 326.686 394.317C321.813 394.779 316.735 395.956 313.167 399.305C309.6 402.656 308.225 408.72 311.321 412.51C314.329 416.188 319.837 416.273 324.574 415.895C330.934 415.386 337.456 414.52 343.581 412.719C343.385 405.576 340.144 398.541 334.868 393.718Z" fill="#685B7B"/>
<path d="M362.53 367.44C361.743 365.192 359.857 363.421 357.636 362.589C358.931 367 359.127 371.731 357.902 375.991C357.737 376.563 357.544 377.125 357.335 377.682C358.167 377.474 358.97 377.104 359.658 376.605C362.437 374.591 363.664 370.678 362.53 367.44Z" fill="#685B7B"/>
<path d="M362.258 389.874C361.658 391.383 361.473 393.051 360.7 394.48C359.208 397.233 355.895 398.5 354.028 401.013C352.403 403.2 352.277 406.238 353.343 408.726C355.644 407.46 357.829 405.987 359.841 404.238C365.697 399.141 369.659 391.965 371.042 384.337C367.383 384.235 363.625 386.432 362.258 389.874Z" fill="#685B7B"/>
<path d="M354.343 393.609C354.908 393.482 355.419 393.184 355.894 392.852C357.307 391.869 362.815 385.828 359.192 384.699C356.354 383.812 352.854 388.107 352.157 390.285C351.822 391.334 351.798 392.673 352.684 393.328C353.149 393.67 353.777 393.735 354.343 393.609Z" fill="#685B7B"/>
<path d="M117.331 380.724C115.56 382.064 113.904 383.535 112.457 385.222C109.303 388.903 107.203 393.713 107.662 398.54C108.123 403.369 111.551 408.028 116.293 409.048C119.529 409.744 122.935 408.737 125.788 407.056C128.642 405.374 131.053 403.058 133.53 400.86C134.87 399.671 136.252 398.531 137.646 397.403C133.76 389.244 126.069 383.001 117.331 380.724Z" fill="#D8B59D"/>
<path d="M173.835 323.542C164.682 334.387 159.049 348.156 157.978 362.306C146.206 365.121 134.477 370.444 123.964 376.441C121.681 377.742 119.425 379.139 117.331 380.725C126.068 383.001 133.761 389.245 137.647 397.404C149.675 387.673 163.579 380.261 178.386 375.772C181.732 358.756 179.197 340.033 173.835 323.542Z" fill="#A08094"/>
<path d="M173.834 323.542C164.682 334.386 159.049 348.155 157.978 362.305C154.156 363.219 150.343 364.419 146.569 365.799C146.58 368.375 147.562 370.955 149.372 372.795C151.031 374.479 153.323 375.492 155.674 375.69C158.6 375.933 161.078 377.932 162.233 380.632C162.396 381.013 162.522 381.411 162.668 381.798C167.759 379.426 173.01 377.402 178.386 375.772C181.732 358.756 179.197 340.033 173.834 323.542Z" fill="#685B7B"/>
<path d="M107.105 325.809C105.562 328.499 103.815 331.092 102.672 333.975C101.529 336.859 101.031 340.136 102.077 343.056C103.36 346.647 106.787 349.123 110.417 350.294C116.858 352.376 124.151 350.88 129.789 347.135C135.427 343.388 139.497 337.587 141.992 331.296C144.488 325.003 145.505 318.217 145.934 311.462C146.074 309.278 146.117 306.947 144.985 305.076C143.184 302.097 139.205 301.432 135.727 301.277C131.527 301.088 127.315 301.199 123.131 301.607C120.207 301.893 115.621 301.386 114.731 304.587C112.655 312.039 111.018 318.992 107.105 325.809Z" fill="#4E2447"/>
<path d="M202.034 388.783C194.118 380.791 184.59 371.613 178.445 362.191C172.301 352.769 168.184 340.623 168.525 329.379C161.8 322.642 154.815 315.304 147.37 309.368C145.611 307.967 143.133 307.792 140.935 308.274C138.738 308.752 136.713 309.802 134.631 310.658C125.079 314.58 112.918 313.687 103.605 309.222C95.5458 313.359 87.1215 312.224 80.4503 307.346C73.7806 302.467 70.1803 294.503 66.2179 287.25C76.5718 280.907 87.2382 273.456 97.5921 267.112C97.9525 252.31 109.15 238.441 123.545 234.97C137.939 231.498 154.23 238.737 161.299 251.748C168.818 265.59 180.005 278.778 194.492 284.965C210.247 291.694 228.002 291.95 245.062 290.381C262.121 288.812 279.065 285.524 296.197 285.551C313.328 285.576 331.158 289.289 344.44 300.108C357.724 310.927 363.443 333.283 357.035 349.173L330.793 367.185L272.14 368.827L202.034 388.783Z" fill="#A08094"/>
<path d="M207.13 304.482C210.022 309.212 216.338 310.169 221.195 312.844C227.536 316.335 231.446 322.888 235.409 328.944C239.373 334.999 244.185 341.208 251.141 343.214C258.919 345.458 267.327 341.695 273.292 336.22C279.257 330.747 283.489 323.684 288.631 317.431C293.775 311.181 300.389 305.456 308.407 304.336C312.312 303.79 316.382 304.367 320.156 303.223C324.941 301.772 328.711 297.41 329.454 292.467C329.506 292.121 329.508 291.774 329.532 291.427C319.12 287.211 307.509 285.567 296.197 285.55C279.065 285.525 262.121 288.811 245.06 290.38C233.154 291.477 220.909 291.674 209.241 289.409C208.276 290.823 207.417 292.298 206.785 293.888C205.429 297.292 205.22 301.356 207.13 304.482Z" fill="#685B7B"/>
<path d="M209.248 325.817C208.858 328.038 209.613 330.344 210.87 332.219C212.125 334.094 213.848 335.602 215.589 337.035C217.682 338.755 220.156 340.501 222.841 340.14C225.39 339.799 227.391 337.484 227.874 334.956C228.356 332.43 227.539 329.792 226.166 327.616C223.016 322.623 210.985 315.909 209.248 325.817Z" fill="#685B7B"/>
<path d="M353.815 311.756C355.284 317.485 354.656 323.774 351.815 328.975C347.611 336.668 338.027 342.509 329.274 342.036C332.31 337.606 335.698 332.49 338.733 328.058C325.4 331.17 312.823 337.037 301.36 344.525C302.333 339.802 303.065 333.836 304.04 329.113C289.417 337.199 276.139 350.305 268.349 365.088L222.096 377.12C216.056 378.692 209.598 376.402 206.084 371.245C203.236 367.064 201.639 362.062 202.137 357.228L178.835 362.749C184.987 371.975 194.275 380.949 202.033 388.783L272.139 368.827L330.792 367.185L357.034 349.173C361.619 337.808 359.972 323.151 353.815 311.756Z" fill="#685B7B"/>
<path d="M77.0976 288.149C77.0976 290.988 73.6648 293.291 69.4317 293.291C65.1972 293.291 61.7658 290.988 61.7658 288.149C61.7658 285.309 65.1972 283.006 69.4317 283.006C73.6648 283.006 77.0976 285.309 77.0976 288.149Z" fill="#4E2447"/>
<path d="M127.206 262.72C127.206 265.664 124.821 268.05 121.877 268.05C118.935 268.05 116.549 265.664 116.549 262.72C116.549 259.778 118.935 257.391 121.877 257.391C124.821 257.391 127.206 259.778 127.206 262.72Z" fill="#4E2447"/>
<path d="M103.605 309.221C110.752 305.133 121.878 295.659 121.878 295.659C119.229 303.512 111.79 309.694 103.605 309.221Z" fill="#4E2447"/>
<path d="M143.278 261.919C144.09 268.99 146.112 275.999 145.577 283.095C144.842 292.876 139.391 301.553 135.082 310.363C130.771 319.173 127.491 329.559 131.227 338.629C134.786 347.264 144.474 352.559 153.802 352.094C163.131 351.629 171.769 346.018 177.12 338.363C182.469 330.706 184.772 321.22 184.937 311.882C185.101 302.542 183.243 293.281 180.879 284.247C178.554 275.374 175.678 266.513 170.697 258.811C166.586 252.455 159.535 244.632 151.763 242.908C142.444 240.839 142.594 255.957 143.278 261.919Z" fill="#62365C"/>
<path d="M355.711 354.752C357.053 353.162 358.344 350.793 357.035 349.173C356.357 348.332 355.158 348.06 354.091 348.225C353.023 348.388 352.053 348.917 351.112 349.447C345.338 352.694 339.557 356.079 334.121 359.893C333.023 360.704 331.916 361.504 330.793 362.279C331.876 361.452 333.002 360.677 334.121 359.893C340.952 354.833 347.266 349.074 352.923 342.729C353.776 341.772 354.63 340.773 355.074 339.573C355.52 338.37 355.478 336.906 354.646 335.931C353.81 334.947 352.358 334.674 351.091 334.924C349.822 335.174 348.69 335.857 347.586 336.531C339.911 341.211 331.883 345.499 324.208 350.18C330.132 344.535 336.054 338.889 341.975 333.243C343.793 331.511 345.784 329.082 344.557 326.757C343.984 325.673 342.815 325.02 341.594 324.892C339.392 324.66 337.478 325.765 335.669 326.862C323.659 334.142 311.946 341.848 301.283 350.986L306.696 335.807C307.584 333.316 308.112 330.713 308.262 328.075C308.398 325.667 305.474 324.35 303.782 326.069C291.464 338.598 280.349 353.366 272.14 368.828L165.722 399.117L114.208 413.78C113.612 425.735 118.064 437.466 126.615 446.018C139.854 459.257 160.186 462.299 176.721 453.515L292.49 392.012C313.096 392.012 334.665 385.23 350.021 371.492C350.889 370.715 351.77 369.879 352.181 368.789C352.592 367.698 352.382 366.285 351.402 365.654C350.289 364.939 348.829 365.502 347.638 366.077C343.455 368.096 338.158 369.866 333.976 371.885C342.276 367.718 349.719 361.85 355.711 354.752Z" fill="#D56C67"/>
<path d="M157.429 404.92C152.213 402.802 146.472 402.028 140.875 402.612C140.506 403.332 140.142 404.054 139.812 404.789C137.308 410.334 135.785 416.775 137.93 422.466C139.607 426.919 143.541 430.451 148.146 431.641C152.752 432.832 157.905 431.647 161.529 428.566C165.894 424.855 167.681 419.126 170.037 413.838C166.562 409.978 162.242 406.877 157.429 404.92Z" fill="#D8B59D"/>
<path d="M202.136 357.228C195.36 350.38 185.458 347.662 175.999 345.828C173.733 355.232 173.472 365.115 175.243 374.627C160.803 378.423 147.708 389.263 140.875 402.613C146.472 402.028 152.213 402.803 157.429 404.921C162.242 406.876 166.563 409.978 170.037 413.839C170.357 413.121 170.686 412.41 171.033 411.716C175.086 403.632 182.667 397.165 191.559 392.796C197.315 389.969 201.025 384.131 200.739 377.725C200.434 370.886 200.989 364.001 202.136 357.228Z" fill="#A08094"/>
</g>
</g>
<defs>
<filter id="filter0_d_72_7309" x="57.7658" y="8.13184" width="353.215" height="628.589" filterUnits="userSpaceOnUse" color-interpolation-filters="sRGB">
<feFlood flood-opacity="0" result="BackgroundImageFix"/>
<feColorMatrix in="SourceAlpha" type="matrix" values="0 0 0 0 0 0 0 0 0 0 0 0 0 0 0 0 0 0 127 0" result="hardAlpha"/>
<feOffset dy="4"/>
<feGaussianBlur stdDeviation="2"/>
<feComposite in2="hardAlpha" operator="out"/>
<feColorMatrix type="matrix" values="0 0 0 0 0 0 0 0 0 0 0 0 0 0 0 0 0 0 0.25 0"/>
<feBlend mode="normal" in2="BackgroundImageFix" result="effect1_dropShadow_72_7309"/>
<feBlend mode="normal" in="SourceGraphic" in2="effect1_dropShadow_72_7309" result="shape"/>
</filter>
</defs>
</svg>
